<svg xmlns="http://www.w3.org/2000/svg" viewBox="0 0 24 24" width="32" height="32">
  <circle cx="12" cy="12" r="12" fill="#1565FF"/>
  <path fill="white" d="M12 5.5C8.41 5.5 5.5 8.41 5.5 12s2.91 6.5 6.5 6.5 6.5-2.91 6.5-6.5S15.59 5.5 12 5.5zm2.98 9.38c-.12.19-.37.25-.56.13-1.53-.94-3.46-1.15-5.73-.63-.22.05-.43-.09-.48-.3-.05-.22.09-.43.3-.48 2.49-.57 4.62-.32 6.34.72.19.12.25.37.13.56zm.79-1.76c-.15.23-.46.3-.69.15-1.75-1.08-4.42-1.39-6.49-.76-.27.08-.55-.07-.63-.34-.08-.27.07-.55.34-.63 2.37-.72 5.31-.37 7.32.86.23.15.3.46.15.72zm.07-1.83c-2.1-1.25-5.56-1.36-7.57-.75-.32.1-.66-.09-.76-.41-.1-.32.09-.66.41-.76 2.32-.71 6.17-.57 8.6.87.29.17.38.55.21.84-.17.29-.55.38-.89.21z"/>
</svg>